<?xml version="1.0" encoding="utf-8" ?>
<svg baseProfile="full" height="300mm" version="1.1" viewBox="0,0,200,300" width="200mm" xmlns="http://www.w3.org/2000/svg" xmlns:ev="http://www.w3.org/2001/xml-events" xmlns:xlink="http://www.w3.org/1999/xlink"><defs /><rect fill="#222222" height="300" width="200" x="0" y="0" /><text fill="#FFFFFF" style="font-size:12px; font-family:Arial; font-weight:bold;" x="10" y="20">Over 10km Runs</text><text fill="#FFFFFF" style="font-size:4px; font-family:Arial" x="10" y="280">Runner</text><text fill="#FFFFFF" style="font-size:9px; font-family:Arial" x="10" y="290">hellroin</text><text fill="#FFFFFF" style="font-size:4px; font-family:Arial" x="65" y="280">SPECIAL TRACKS</text><rect fill="yellow" height="2.6" width="2.6" x="65" y="283" /><text fill="#FFFFFF" style="font-size:3px; font-family:Arial" x="70" y="285.5">Over 20.0 km</text><rect fill="red" height="2.6" width="2.6" x="65" y="287" /><text fill="#FFFFFF" style="font-size:3px; font-family:Arial" x="70" y="289.5">Over 40.0 km</text><text fill="#FFFFFF" style="font-size:4px; font-family:Arial" x="120" y="280">STATISTICS</text><text fill="#FFFFFF" style="font-size:3px; font-family:Arial" x="120" y="285">Number: 4</text><text fill="#FFFFFF" style="font-size:3px; font-family:Arial" x="120" y="290">Weekly: 1.0</text><text fill="#FFFFFF" style="font-size:3px; font-family:Arial" x="141" y="285">Total: 40.2 km</text><text fill="#FFFFFF" style="font-size:3px; font-family:Arial" x="141" y="290">Avg: 10.1 km</text><text fill="#FFFFFF" style="font-size:3px; font-family:Arial" x="167" y="285">Min: 10.0 km</text><text fill="#FFFFFF" style="font-size:3px; font-family:Arial" x="167" y="290">Max: 10.1 km</text><polyline fill="none" points="48.258930934011005,66.46253729832824 48.258930934011005,66.41931128606666 48.79478698060848,66.91641054526553 48.9233924318105,67.24060585343977 49.22347181790974,67.43512309106882 49.45924847840797,67.7160925041535 49.78076210641302,67.93222287809476 49.930801799404435,68.10512721232953 50.4452236040961,68.53738818477723 50.766737231984735,68.7102926283842 52.181397194974124,69.22900614683749 52.995898385881446,69.40191071544541 55.375099232653156,70.11514239147073 56.296771632740274,70.50417807520716 56.746890711714514,70.74192218206008 58.0758137073135,71.34708926614258 58.397327335202135,71.43354173802072 58.675972479511984,71.56322046040441 59.44760518649127,71.97386986398487 59.683381846989505,72.06032239249907 60.390711828600615,72.49258515215479 60.86226514948066,72.73032975321985 61.1409102936741,72.81678235009895 63.391505689243786,73.89744047023123 63.56297962425742,74.04873270451208 65.10624503833242,74.6755150728277 66.32799682451878,74.99971301073674 66.73524741991423,75.15100541934953 66.99245832220186,75.30229785191477 68.81436888070311,76.75038377466262 69.26448795979377,76.988129434234 70.07898915046826,77.50684744212776 70.44337126216851,77.80943307670532 71.107832759968,78.24169843501295 71.9008997088531,78.84687026505708 72.32958454615436,79.12784303055378 73.59420481615234,80.07882838827209 74.38727176492102,80.57593474714668 74.73021963483188,80.85690802088357 75.39468113251496,81.26756141570513 76.50926170940511,81.91596187182586 76.85220957919955,82.17532217747066 78.93133103987202,83.51535154425073 79.16710770037025,83.70987209235318 79.5314898120705,83.94761948267114 81.11762370995712,85.17958417980117 82.18933580315206,86.36832355085062 82.61802064033691,86.93027358647669 83.2396136544412,87.96772067429265 83.68973273341544,88.57289866229985 83.86120666854549,88.89710131354514 85.38303784071468,90.58295687340433 85.83315691980533,90.99361444750684 86.11180206411518,91.31781792023685 86.86200052918866,91.94461161267827 87.48359354317654,92.33365618038806 87.955146864173,92.76592810809962 88.5553056364879,93.21981384273386 89.30550410156138,93.65208617140888 89.45554379466921,93.7817679081927 90.05570256675128,94.1491995913093 90.2271765016485,94.2788813955558 90.67729558085557,94.51663141572499 90.9773749668384,94.71115420357091 91.12741466006264,94.84083608409856 91.42749404604547,94.99213163368404 91.77044191583991,95.2298818314448 91.96335009264294,95.46763208834454 92.67068007413764,95.96474645312992 93.03506218572147,96.37540634092875 93.31370733003132,96.52670213358942 93.78526065091137,96.87252117824391 94.17107700451743,97.26156775312847 94.87840698589571,97.82352419671952 95.13561788829975,98.12611626484431 95.47856575809419,98.36386724279146 95.5,98.42870842883713 95.37139454879798,98.42870842883713 95.19992061390076,98.34225351503119 94.94270971149672,98.10450254249736 94.57832759991288,97.84513791269273 93.12079915322829,96.59154319492518 92.92789097642526,96.37540634092875 92.67068007413764,96.22411057224963 92.39203492982779,95.89990543434396 92.09195554384496,95.64054140323424 91.79187615774572,95.46763208834454 91.25602011114825,95.07858624416986 90.57012437155936,94.62469962629257 89.28406985977199,93.88983603563975 88.98399047367275,93.67369979302748 88.76964805496391,93.47917721647536 87.9122783804778,92.93883693395765 86.77626356179826,92.07429311759188 85.94032812910154,91.4042721981823 85.34016935690306,90.82070597374695 84.8471817941172,90.23714010580443 84.28989150561392,89.65357459429651 83.38965334743261,88.46483113631257 82.89666578464676,87.77319925950724 82.5965863984311,87.27608915723977 82.16790156124625,86.77897931361804 81.8463879332412,86.3250966387277 81.58917703095358,86.0873486569908 81.0533209843561,85.37410506658489 80.79611008206848,85.15797075032606 80.71037311456166,85.04990361054661 79.93874040758237,84.48795468057506 79.70296374708414,84.25020715588471 78.56694892828818,83.55857832927722 77.98822439799551,83.12631056681857 76.76647261169273,82.43468255343032 74.8159566023387,81.20272139422013 74.49444297433365,80.92174801888177 74.00145541143138,80.61916139931418 73.50846784864552,80.18689496602747 73.16551997885108,80.01398844749201 71.8580312251579,79.0413898631814 69.90751521568745,77.72298002845491 69.32879068539478,77.29071490469505 69.17875099228695,77.24748840302345 69.09301402489655,77.0961956626852 68.27851283398923,76.53425140818581 66.39229955011979,75.32391105854185 66.17795713152736,75.2158450303832 65.25628473132383,74.93487341434229 64.9990738290362,74.80519423479564 64.37748081504833,74.61067549843574 63.284334479947574,74.11357224080712 62.6627414659597,73.74614825987373 62.384096321766265,73.68130874852068 61.483858163584955,73.27065861184383 61.098041809978895,73.01130072158412 59.89772426569834,72.5141982952482 59.168960042414255,72.103548659652 58.26872188411653,71.71451232541585 57.347049483913,71.21741057306645 56.31820587452967,70.82837459922303 55.7609155861428,70.52579117336427 54.34625562315341,70.02869003874366 52.88872717646882,69.63965454834397 51.581238422892056,69.5099760867306 50.959645408787765,69.5099760867306 50.80960571579635,69.4667499367788 50.3594866367057,69.12094080727547 49.845064831897616,68.47254902645363 49.52355120400898,68.10512721232953 47.76594337122515,66.28963326089433 47.230087324627675,65.81414731906261 45.51534797553904,64.5605946049327 45.172400105861016,64.40930387118715 43.43622651498299,63.54478585146717 42.0644350356888,63.00446248569642 39.599497221410275,61.96704247855814 37.30603334214538,61.059300894790795 35.955676104757,60.56220467801904 33.233527388074435,59.74091584191774 32.8691452764906,59.56801301887026 32.09751256951131,59.373497380292974 31.283011378603987,59.09253041649936 31.025800476199947,59.02769189813989 30.5542471553199,58.854789203905966 30.125562318018638,58.617048050276935 29.503969303914346,58.53059673635289 28.08930934104137,58.05511464929441 26.95329452236183,57.75253526223241 25.53863455937244,57.212215166160604 25.10994972207118,57.12576397910016 24.681264884769917,56.97447442045086 22.9236570521025,56.47738032482448 21.31608891231008,55.85060987647739 20.437284996034577,55.483192907850025 18.593940195743926,54.44578105155961 18.03664990735706,54.07836462199339 17.58653082814999,53.732561052340316 16.68629266996868,53.19224322476657 16.386213283869438,52.9545034772309 15.91465996298939,52.65192570205545 15.40023815818131,52.21967190341093 14.542868483695202,51.67935492945253 14.5,51.61451691304683 14.585736967273988,51.57129157119198 14.800079386099242,51.700967602519086 16.107568139676005,52.587087619816884 16.60055570246186,52.88966537450324 16.964937814162113,53.19224322476657 17.200714474660344,53.30030676588649 18.786848372546956,54.38094284784165 19.45130987034645,54.769972135924036 20.15863985172473,55.07255058034207 20.501587721519172,55.353516364324605 21.423260121722706,55.720933283213526 23.781026726588607,56.5854442367272 25.259989415179007,56.97447442045086 26.438872717670165,57.34189196137595 26.546043926966377,57.34189196137595 26.69608361995779,57.233827964169905 27.124768457142636,56.671895375009626 28.453691452741623,55.28867809913936 28.346520243328996,55.483192907850025 27.553453294443898,56.218026986083714 27.360545117640868,56.52060588810127 26.7603863455588,57.233827964169905 26.7175178618636,57.34189196137595 26.73895210365299,57.38511756371008 27.08189997356385,57.53640718720271 27.639190261950716,57.666084026393946 28.11074358294718,57.88221213064389 29.18245567602571,58.18479155865498 29.761180206318386,58.44414543022867 31.175840169307776,58.898014874517685 31.49735379719641,58.9628533841169 32.93344800209161,59.395110227080295 33.812251918483526,59.69769013329642 35.31264884886332,60.17317303625168 35.69846520246938,60.34607596864225 36.7487430536421,60.67026905098464 38.570653612026945,61.36188132708776 39.08507541671861,61.621236059465446 40.19965599360876,61.96704247855814 40.949854458798654,62.334461935795844 41.78578989149537,62.61542985122651 42.857501984690316,63.06930127349915 43.371923789265566,63.393495278287446 43.73630590096582,63.501559970958624 44.229293463751674,63.7176893929427 44.50793860806152,63.868980017345166 44.722281026653945,64.0418836173194 45.21526858955622,64.21478724866756 46.05120402225293,64.79833723485353 46.90857369673904,65.29543565199128 47.80881185492035,65.9654382748995 47.76594337122515,65.98705127058201" stroke="#4DD2FF" stroke-linecap="round" stroke-linejoin="round" stroke-width="0.5"><title>2025-10-05 10.1km</title><desc>16035641501</desc></polyline><polyline fill="none" points="138.4684350132011,66.56131157948403 138.72625994682312,66.82128688201192 138.91962864715606,67.12459149066126 139.60716180375312,67.70953636392369 139.693103448255,67.90451806766214 140.01538461528253,68.03450589207932 140.48806366045028,68.44613411929458 141.06816976121627,68.7277745869942 141.34748010605108,68.79276855281205 141.64827586198226,69.00941513743601 142.57214854110498,69.29105577062 143.04482758627273,69.46437312444323 143.32413793099113,69.50770246781758 143.81830238725524,69.68101986078545 144.16206896549556,69.7243492139678 145.25782493362203,70.0493194248993 147.19151193625294,70.95923660154222 148.11538461537566,71.30587194362306 149.14668435009662,71.80416046731989 150.28541114053223,72.47576714819297 150.69363395229448,72.58409085046151 151.05888594163116,72.80073829169851 151.57453580899164,72.9957210306602 152.1116710875649,73.32069235047675 152.56286472140346,73.51567519517266 152.8851458885474,73.710658079508 153.42228116700426,73.88397623228957 153.59416445624083,74.01396486739395 154.36763925733976,74.33893653232371 154.66843501327094,74.49059001365094 155.37745358084794,74.70723788571195 155.8501326260157,74.79389704827918 156.53766578249633,75.05387458295445 156.92440318292938,75.2705225823156 157.7838196286466,75.9637965093716 158.2779840847943,76.35376331373118 158.60026525193825,76.54874677537009 158.79363395215478,76.7220654412813 159.1374005305115,76.91704897789168 160.44801061006729,77.80530781313428 161.1355437664315,78.2819348446501 161.39336870016996,78.49858357367339 161.88753315643407,78.78022699459689 162.78992042434402,79.45183856316726 163.41299734741915,79.97179622988915 163.99310344818514,80.31843483107514 164.42281167116016,80.64340863359394 164.8095490715932,80.83839296796941 165.1103448275244,81.07670720835449 165.28222811676096,81.16336694682832 165.45411140588112,81.33668644726276 166.22758620686363,81.7483203864249 167.1084880636772,82.31160922136041 167.3877984083956,82.54992382813361 167.88196286465973,82.83156843981124 168.39761273213662,83.19987305696122 168.7628647214733,83.39485791156767 170.7824933687225,84.84641307668062 171.08328912465367,85.10639333844301 171.29814323596656,85.40970373305026 171.66339522541966,85.79967438147287 171.83527851465624,86.03798985591857 172.15755968168378,86.36296559838229 172.45835543761496,86.7962667599204 172.7806366046425,87.12124275966198 173.0814323606901,87.53287918429123 173.2103448275011,87.9011856088764 173.85490716178901,88.81111973561929 174.45649867376778,89.50440346010146 174.8647214852972,90.04603171901545 174.95066312991548,90.19768768636277 175.57374005299062,90.69598603408667 176.32572944287676,91.56259247360867 177.55039787793066,92.38586931762984 178.9684350132011,93.51245983014815 179.24774535815232,93.64245112845674 179.48408488067798,93.85910333145875 179.69893899199087,93.94576422643149 179.91379310342018,94.14075126868556 180.15013262594584,94.24907742044888 180.7517241379246,94.63905166825862 180.9021220159484,94.8123736071575 181.6326259947382,95.22401333780726 181.84748010605108,95.31067435626755 182.21273209538776,95.61398798268056 182.42758620693348,95.74397956635221 182.81432360736653,96.11228914905223 183.11511936341412,96.43726831031381 183.54482758615632,96.71891700598644 184.01750663132407,97.15222285344498 184.8554376657121,97.84551261729212 185.04880636604503,98.06216577149462 185.2851458885707,98.27881897473708 185.5,98.38714559469372 185.45702917769086,98.4738068995357 185.1992042439524,98.34381494525587 184.98435013263952,98.06216577149462 184.57612732087728,97.80218199235969 183.6307692307746,97.02223107859027 183.28700265253428,96.69725171875325 182.64244031824637,96.1989502479264 182.16976127319504,95.70064903644379 181.67559681693092,95.4190006403951 181.41777188319247,95.15901757907704 181.09549071616493,94.94236508192262 180.7732095491374,94.79070836305618 180.08567639254034,94.31407311736257 179.48408488067798,94.03242512917495 178.88249336869922,93.68578156511649 178.32387267891318,93.31747291583451 177.35702917771414,92.60252123634564 177.22811671090312,92.42919969747891 176.86286472145002,92.169217447954 176.5190981432097,91.84423973533558 175.8745358090382,91.43260145769455 175.53076923068147,91.06429367506644 174.73580901848618,90.1543574075622 174.45649867376778,89.9160409089236 174.22015915124211,89.52606858455692 174.11273209541105,89.46107321258751 174.09124668431468,89.3744127235259 173.76896551717073,89.07110107352491 173.10291777190287,88.00951105481363 172.84509283816442,87.70619983703364 172.7806366046425,87.51121410483029 172.65172413783148,87.29456333789858 172.32944297080394,86.947922212712 172.24350132618565,86.77460169716505 172.05013262596913,86.55795109682367 171.87824933684897,86.29797044111183 171.6419098143233,86.08131994854193 171.29814323596656,85.6046890373982 170.97586206893902,85.32304361052229 170.73952254641335,85.10639333844301 169.53633952245582,84.15313272344065 169.36445623333566,83.97981271354365 167.6885941643268,82.93989331249031 167.3877984083956,82.72324357938487 164.78806366049685,81.16336694682832 164.63766578247305,80.99004747768049 164.1649867374217,80.66507355769863 163.62785145884845,80.34009974781657 161.8015915119322,78.93188117869431 161.3074270556681,78.6719025921193 160.23315649863798,77.89196725576767 159.39522546424996,77.3503458678897 157.74084880633745,76.09378542655031 157.1392572944751,75.76881316673825 156.47320954909083,75.2705225823156 156.02201591513585,75.07553938063211 155.61379310349002,74.98888019265723 154.4106100795325,74.59891394359875 152.51989389921073,73.64566378033487 151.93978779832833,73.42901614817674 151.03740053041838,73.03905053361086 149.40450928383507,72.17246084698127 148.91034482757095,71.99914300363162 147.53527851449326,71.284207231045 145.75198938988615,70.46094851687667 145.40822281164583,70.3742897460179 143.88275862066075,69.85433728512726 142.8514588859398,69.61602583472268 141.75570291781332,69.50770246781758 140.9822281167144,69.46437312444323 140.8318302386906,69.42104378304793 139.80053050396964,68.40280482388334 139.30636604770552,67.96951197765884 138.9625994694652,67.55788395510172 138.44694960210472,67.05959763788269 137.84535809012596,66.36633014885592 137.20079575595446,65.78138609480811 136.34137931023724,65.13144867538358 135.46047745354008,64.54650537439738 135.20265251991805,64.39485346569563 134.92334217508323,64.3081952429493 134.21432360738982,63.896568791678874 133.56976127321832,63.593265203759074 133.31193633947987,63.39828437648248 131.55013262596913,62.77001309141633 130.4973474801518,62.27172926138155 130.26100795750972,62.206735737388954 129.89575596817303,62.01175519195385 128.7785145888338,61.60012972605182 128.56366047740448,61.53513624754851 128.19840848795138,61.36182032650686 127.44641909806523,61.036853058903944 127.1885941644432,60.99352409821586 126.90928381960839,60.86353722785134 124.20212201587856,59.97529408507398 123.85835543763824,59.888636261515785 122.65517241379712,59.45534726115875 121.0867374005029,58.97872958666994 120.11989389918745,58.63209869939601 118.7018567638006,58.220474683417706 117.2838196286466,57.74385762223392 115.58647214854136,57.223912007466424 115.28567639249377,57.072261256194906 114.79151193634607,56.985603694745805 114.3403183023911,56.79062421026174 113.1156498673372,56.48732286860468 112.51405835535843,56.249014738801634 111.93395225470886,56.07569977256935 111.65464190975763,55.92404920270201 110.94562334218062,55.685741212859284 110.40848806372378,55.360775867447956 109.20530503976624,54.77583852299722 108.4533156498801,54.342551831010496 107.35755968163721,53.519307655107696 107.14270557032432,53.41098610556219 106.90636604779866,53.21600734721869 106.19734747998882,52.782721359311836 105.46684350119904,52.19778558597318 105.1445623341715,52.02447135114926 104.75782493362203,51.87282142142067 104.56445623340551,51.742835786397336 104.5,51.63451443731901 104.60742705571465,51.5261931004934 104.69336870021652,51.56952163373353 105.33793103450444,52.02447135114926 105.74615384615026,52.26277843207936 105.96100795746315,52.43609270983143 106.88488063658588,52.999364328803495 107.35755968163721,53.38932179714902 107.72281167109031,53.56263627836597 108.04509283811785,53.800943741051015 109.14084880636074,54.49420215093414 110.0217506630579,54.97081759822322 110.21511936339084,55.10080367032788 111.22493368689902,55.51242634825758 111.41830238723196,55.6424124937912 111.67612732097041,55.72906993387733 111.78355437656865,55.815727381792385 112.62148541107308,56.14069288125029 114.66259946941864,56.7256310575176 116.18806366040371,57.24557640240528 116.57480106095318,57.31056959030684 117.26233421755023,57.570542386034504 118.12175066315103,57.74385762223392 118.61591511929873,57.93883730052039 118.87374005292077,58.02549494794221 119.90503978775814,58.415454458474414 120.61405835545156,58.58876984726521 121.19416445633397,58.82707855809713 122.161007957533,59.10871620167745 122.41883289115503,59.2170383943012 123.72944297082722,59.67199173689005 125.12599469488487,60.08361637554481 125.72758620686363,60.343589922529645 125.96392572950572,60.36525438798708 126.54403183015529,60.560234598844545 127.8331564986147,61.058517539990135 128.62811671081,61.29682686418528 129.68090185674373,61.68678770418046 129.93872679048218,61.838439184764866 130.69071618036833,62.141742217878345 131.44270557025447,62.40171632255078 131.87241379299667,62.640025980363134 133.24748010607436,63.22496811879682 133.63421750662383,63.41994891088689 133.95649867365137,63.5282715902722 134.6655172413448,63.896568791678874 134.83740053046495,63.918233337346464 134.98779840837233,63.98322697728872 136.29840848804452,64.8064801307919 138.06021220155526,66.23634255048819 139.4567639256129,67.7528656279901 139.92944297089707,68.14282909268513 139.99389920430258,68.44613411929458 139.95092838187702,68.4677987676987 139.822015915066,68.40280482388334 139.43527851463296,68.05617053125752 138.44694960210472,66.92960994550958 138.38249336869922,66.88628071863786" stroke="#4DD2FF" stroke-linecap="round" stroke-linejoin="round" stroke-width="0.5"><title>2025-09-21 10.1km</title><desc>15882343871</desc></polyline><polyline fill="none" points="62.763245033158455,223.97044617237407 62.71854304638691,224.18079522403423 62.74834437086247,224.3310445873649 63.508278145687655,225.14239173583337 64.05960264900932,225.60816554602934 64.70033112581586,225.95373987403582 65.19205298018642,226.13403959473362 66.05629139073426,226.34438933062484 66.16059602651512,226.38946428272175 66.57781456958037,226.46458920961595 67.54635761590907,226.78011399524985 67.76986754970858,226.88528895709896 68.21688741724938,227.03553893134813 68.63410596037284,227.24588895245688 69.55794701993,227.62151415555854 70.16887417220278,227.9370394901198 70.49668874178315,228.1323647722893 70.69039735099068,228.2225149218866 70.85430463583907,228.3577401691291 71.01821192057105,228.40281525769387 71.16721854306525,228.50799047615146 71.61423841066426,228.6882908893749 71.83774834440555,228.85356631115428 72.4784768212121,229.04889186253422 72.83609271532623,229.2592425205221 72.94039735099068,229.34939282288542 73.17880794708617,229.43954313747236 73.29801324510481,229.5296934642829 73.47682119207457,229.57476863224292 74.04304635769222,229.84521970438072 75.3245033113053,230.19079623444122 75.71192052983679,230.35607202968094 76.0099337748834,230.656573580869 76.27814569545444,230.85189966196776 76.51655629143352,231.04722580051748 76.71026490069926,231.16742652963148 77.08278145705117,231.43787824970786 77.21688741724938,231.55807904945686 77.81291390734259,231.91868157923454 78.42384105961537,232.38446013641078 78.69205298018642,232.53471135348082 78.84105960268062,232.66993747791275 79.39238410594407,233.06059088080656 79.86920529801864,233.34606851273566 79.8990066225524,233.42119422569522 79.98841059603728,233.48129480224452 80.16721854306525,233.64657141565112 80.76324503315846,234.00717507849913 81.50827814574586,234.48798026668373 81.83609271526802,234.6833074737806 82.05960264900932,234.84858438611263 82.41721854306525,235.04391169917653 82.62582781456877,235.22421388525981 82.86423841066426,235.34441536982195 82.99834437092068,235.46461687615374 83.25165562919574,235.64491917638225 83.71357615903253,235.94542311885743 83.96688741730759,236.06562473383383 84.3990066225524,236.35110365672153 84.56291390734259,236.44125492096646 84.96523178811185,236.7267340052349 85.06953642389271,236.8469357615977 85.41225165565265,237.11738979295478 85.6804635761655,237.37281870143488 86.24668874178315,238.06397976970766 86.42549668881111,238.30438378808321 86.48509933776222,238.4245858299255 86.81291390728438,238.72509102962795 86.88741721858969,238.84529314757674 86.93211920536123,239.01057109521935 87.06622516555944,239.2960512835416 87.31953642389271,239.5815315945365 87.51324503315846,239.86701202820404 87.61754966893932,239.95716376960627 88.10927152319346,240.58822630197392 88.54139072849648,241.06903625288396 88.95860927156173,241.4296439444588 89.31622516561765,241.68507451115875 89.49503311264561,241.8804038343078 90.1059602649184,242.3461893752392 90.34437086101389,242.60162029441562 90.7764900662587,242.84202595520765 91.04470198677154,243.08243170302012 91.28311258280883,243.1575585170649 91.43211920536123,243.26273607095936 91.53642384108389,243.33786290540593 91.6109271523892,243.42801511794096 92.26655629137531,243.87877636426128 92.40066225168994,244.01400479784934 92.60927152319346,244.07410633270047 92.81788079469698,244.20933480604435 92.9519867550116,244.2694363585906 93.1009933775058,244.40466487171943 93.5480132450466,244.75024897482945 93.65231788088568,244.81035057635745 94.05463576159673,245.14090948191006 94.20364238414913,245.32121440887568 94.35264900664333,245.3963414762111 94.59105960268062,245.65177356879576 95.24668874172494,246.17766348063014 95.38079470203957,246.23776521135005 95.5,246.3880195619713 95.48509933776222,246.43309587379918 94.79966887418414,245.982332893298 94.50165562919574,245.68182440966484 94.23344370862469,245.5165448016778 94.12913907284383,245.3512652347854 94.02483443712117,245.24608735000947 93.57781456958037,244.9305537956825 92.86258278146852,244.3295379166084 91.96854304638691,243.77359871275257 91.81953642389271,243.63837032814627 91.34271523181815,243.36791364153032 91.13410596031463,243.2026346095372 90.94039735104889,243.09745706513058 90.4784768212703,242.75187382221338 89.86754966893932,242.33116403012536 89.61423841066426,242.18091059749713 88.98841059609549,241.68507451115875 88.70529801328667,241.39959329602425 88.57119205297204,241.21928943390958 87.94536423846148,240.61827691367944 87.7814569536713,240.39289735883358 87.6324503311771,240.2276190672128 87.17052980134031,239.61158216072363 86.5149006623542,238.64996471695486 86.32119205297204,238.30438378808321 86.09768211923074,238.03392927357345 85.93377483444056,237.89870205754414 85.59105960262241,237.4779953393445 85.20364238414913,237.11738979295478 84.3245033112471,236.4713053450978 83.44536423846148,235.8853223194601 82.83443708607228,235.53974282863783 82.22350993385771,235.08898724109167 81.79139072855469,234.81853403532295 81.19536423846148,234.48798026668373 80.71854304638691,234.1273763429199 79.83940397354309,233.54139538417803 79.6009933775058,233.34606851273566 78.66225165565265,232.7300379864755 78.05132450337987,232.24923407004098 77.15728476824006,231.67827987100463 76.05463576165494,230.85189966196776 75.84602649009321,230.74672407272737 75.33940397360129,230.40114725369494 75.08609271532623,230.29597173575894 74.57947019877611,230.16074609424686 73.73013245034963,229.8602447671874 72.94039735099068,229.48461829934968 72.59768211923074,229.289292619942 72.38907284766901,229.21416737392428 72.04635761590907,229.04889186253422 71.7334437086829,228.92869151642662 71.28642384108389,228.67326585308183 69.9304635761655,227.9821145501628 69.7069536424242,227.90698945181794 69.31953642389271,227.72668925044127 68.99172185431235,227.54638909795904 68.78311258280883,227.47126404882874 67.88907284772722,227.05056393065024 66.98013245040784,226.78011399524985 66.42880794702796,226.5697641214938 65.62417218548944,226.43453923781635 64.95364238409093,226.38946428272175 64.46192052983679,226.32936434730073 64.10430463583907,226.02886475171545 63.821192053030245,225.68329038468073 63.3294701987179,225.1724416492507 62.70364238409093,224.46626904336154 62.40562913910253,224.18079522403423 61.79470198682975,223.68497256582486 61.034768212004565,223.14407554201898 60.46854304638691,222.78347777045565 58.93377483449876,222.03223304086714 57.71192052983679,221.5664617345028 57.25,221.32606376850163 57.0264900662587,221.26596429056372 56.087748344405554,220.86029295649496 55.83443708613049,220.78516866255086 54.73178807948716,220.34944792476017 54.58278145699296,220.30437338192132 54.091059602680616,220.09402555593988 52.899006622552406,219.80855361264548 51.69205298018642,219.387858340604 51.34933774842648,219.31273421284277 50.90231788082747,219.1474611616577 50.529801324533764,219.05731224193005 50.29139072849648,218.93711370133678 49.993377483508084,218.86198962447816 49.337748344405554,218.62159263552167 48.920529801398516,218.5164189801435 47.68377483449876,218.08069972789963 47.1324503311771,217.93045177598833 46.879139072902035,217.82527822986594 46.70033112587407,217.7952286482905 45.299668874184135,217.38955943004112 43.83940397348488,216.83364275473286 43.362582781526726,216.63832078984706 42.975165562995244,216.4279741225473 42.79635761596728,216.29275130011956 42.587748344405554,216.21762752172071 41.857615894055925,215.7819097743195 41.47019867552444,215.49643968063174 41.36589403974358,215.39126651908737 40.769867549766786,214.9855987658957 40.15894039737759,214.57993125994108 39.607615894055925,214.2644122595375 39.1754966887529,213.9338687051786 38.519867549766786,213.52820184006123 38.22185430472018,213.3629302251502 37.47682119207457,213.03238711835002 37.00000000005821,212.77696755732177 36.64238410600228,212.64174547645962 36.1804635762237,212.40135073379497 35.92715231794864,212.29617806116585 35.092715231876355,211.8604628801404 34.66059602651512,211.72524098539725 34.16887417220278,211.5148958703503 33.841059602738824,211.4097233377397 33.36423841060605,211.22942760615842 32.82781456958037,211.06415656179888 32.395695364277344,211.0341072854062 32.08278145699296,210.823762388638 31.695364238403272,210.67351607451565 31.337748344463762,210.59839293011464 30.413907284790184,210.28287581633776 29.981788079545368,210.26785119558917 29.013245033216663,210.46317129163072 28.52152317884611,210.50824516807916 28.298013245046604,210.47819591677398 28.044701986771543,210.38804817097844 27.00165562919574,209.80208812083583 26.39072847686475,209.50159598738537 26.092715231818147,209.29125157467206 25.98841059609549,209.12598101125332 25.80960264906753,208.97573508010828 25.690397351048887,208.81046459500794 24.855960264976602,208.28460423334036 24.54304635769222,207.96908821561374 24.4089403974358,207.78879341541324 24.170529801340308,207.5784495435073 23.514900662295986,206.70702563901432 22.725165562937036,205.76048027561046 22.576158940442838,205.61023510352243 22.486754966899753,205.55013704416342 22.322847682167776,205.52008801652119 21.96523178811185,205.58018607317354 21.756622516550124,205.65530865159235 21.503311258275062,205.67033316829475 21.25,205.745455756929 21.04139072849648,205.83560287440196 20.594370861013886,205.9257500040694 20.05794701987179,205.83560287440196 19.10430463583907,205.45998996528215 18.076158940442838,205.11442627591896 17.763245033100247,204.9641812494665 17.27152317884611,204.79891175951343 16.95860927150352,204.63364231059677 16.19867549673654,204.36320148254163 15.990066225174814,204.21295662550256 15.751655629195739,204.09276076426613 15.498344370920677,203.92749149043811 14.932119205361232,203.61197753605666 14.67880794708617,203.56690412620082 14.5,203.59695306577487" stroke="#4DD2FF" stroke-linecap="round" stroke-linejoin="round" stroke-width="0.5"><title>2025-09-14 10.0km</title><desc>15803884490</desc></polyline><polyline fill="none" points="148.28330019890564,221.58076512732077 148.301192843006,221.7431420859648 149.33896620280575,222.7174045308784 149.98310139169917,223.0962846915063 150.50198807159904,223.24062003806466 150.84194831026252,223.42103925798438 151.09244532813318,223.4390811821795 152.43439363822108,223.83600361848949 152.86381709744455,224.07054878713097 153.4900596422376,224.21488430982572 153.59741550707258,224.30509402471944 153.84791252494324,224.23292625197791 154.68886679928983,224.52159738211776 155.15407554677222,224.79222666137503 155.42246520880144,224.8643944846408 155.92345924460096,225.18914977021632 156.33499005972408,225.3154435280303 157.21172962232959,225.8386607375287 157.17594433412887,225.82061875908403 157.60536779329414,225.8747446956695 158.05268389661796,226.3438362996385 158.91153081518132,226.59642420054297 159.96719681919785,227.20985229263897 160.62922465219162,227.4624404675269 161.2375745527679,227.7871968098334 161.64910536789102,227.84132287971443 162.0785288271145,228.09391125442926 162.36481113330228,228.12999531443347 162.47216699813725,228.2202054717054 162.75844930420863,228.2202054717054 163.0447316103964,228.43670989075326 163.34890656068455,228.52692008268787 163.5994035785552,228.72538254078245 163.4204771372024,228.7073404971161 163.76043737580767,228.79755071960972 164.5298210735782,229.41098050301662 165.47813121281797,230.0965790541086 166.44433399609989,230.6197993971873 166.60536779329414,230.89043074371875 166.44433399609989,230.728051924787 166.60536779329414,230.6197993971873 166.73061630222946,230.29504190248554 166.98111332010012,231.14302008325467 167.85785288276384,231.70232533387025 168.054671968217,231.9729570474592 168.35884691850515,232.2255467296054 168.4840954274987,232.17142036239966 168.68091451301007,232.26163097645622 169.3608349901042,232.83897914766567 169.6829025844927,233.0554848195752 170.30914512928575,233.38024343756842 170.7922465209267,233.8854237726773 171.5795228628558,234.2462670649984 171.8121272366261,234.30039357292117 172.08051689859712,234.44473094533896 172.20576540764887,234.53494181632414 172.25944334006635,234.60711052050465 172.20576540764887,234.64319487498142 172.43836978130275,234.71536358896992 173.27932405576576,235.34684011439094 173.78031809150707,235.5813886654505 173.88767395634204,235.77985287783667 174.1381709742127,235.83397948983475 174.3170974155655,235.94223272477393 174.38866799208336,236.10461260468583 174.81809145130683,236.4113302458427 175.1580516899121,236.79021690654918 175.69483101397054,237.27735716325697 177.05467196827522,239.31613257652498 177.59145129227545,240.01978193761897 177.68091451295186,240.01978193761897 177.91351888672216,240.29041647259146 178.25347912532743,240.83168581794598 178.539761431457,241.0662359816488 178.80815109342802,241.3909978607262 179.47017892648,241.98639498249395 179.9353876739624,242.25703018475906 180.3469184890855,242.70808905933518 180.70477137179114,242.88851268062717 181.5099403578206,243.5741228137631 181.6530815110309,243.62824995463598 182.17196819093078,244.04322482345742 182.49403578531928,244.13343678001547 182.61928429431282,244.27777593178325 182.94135188875953,244.42211510968627 182.92345924460096,244.47624230809743 182.9950298210606,244.53036951023387 183.4602385686012,244.65666632947978 183.56759443343617,244.89121761827846 183.76441351888934,245.07164173352066 183.72862823068863,244.99947208250524 183.9254473161418,245.0355569072126 184.06858846917748,245.2881507257116 184.26540755468886,245.2881507257116 184.569582504977,245.45053250843193 184.78429423458874,245.46857493076823 184.80218687880551,245.61291432427242 184.69483101397054,245.88355075742584 184.73061630217126,245.9557204884768 185.33896620286396,246.51503612543456 185.42842942348216,246.22635703801643 185.5,246.55112101873965 185.07057654077653,245.99180535643245 184.6590457256534,245.7211688865209 183.96123260440072,245.07164173352066 183.53180914523546,244.7829631686909 183.35288270376623,244.76492076183786 183.03081510937773,244.51232710911427 182.74453280318994,244.4040727110114 182.65506958257174,244.2416911413893 182.47614314121893,244.18756395889795 182.08250497019617,243.84475855485653 181.54572564619593,243.5921651936369 181.25944334000815,243.3395719124237 180.59741550695617,242.97872450656723 180.36481113324407,242.6900466994848 180.00695825053845,242.5817925487645 179.64910536783282,242.16681844048435 179.25546719692647,241.96835263891262 178.93339960242156,241.37295553064905 178.1282306163921,240.56105109932832 178.52186878735665,241.0662359816488 177.8956262425636,240.54300878805225 177.78827037778683,240.3445433905872 177.7524850895279,240.14607804248226 177.5198807157576,239.87544355654973 177.14413518889342,239.2439634464099 177.46620278339833,239.8393589653424 177.09045725647593,239.47851314322907 176.53578528831713,238.61248383618658 176.57157057657605,238.57639930213918 176.53578528831713,238.61248383618658 176.48210735589964,238.5583570357121 175.96322067599976,237.87275121433777 175.98111332015833,237.62015974443057 175.82007952290587,237.16910374714644 175.73061630228767,237.54799076772179 174.90755467204144,237.58407525526127 174.76441351900576,237.49386403951212 174.65705765417079,236.80825913295848 174.71073558658827,236.23090808969573 174.53180914517725,235.90614831147832 174.38866799208336,235.79789508148679 174.19184890663018,235.81593728545704 173.88767395634204,235.56334646677715 173.33300198806683,235.59943086456042 173.18986083503114,235.5092198732018 173.10039761429653,235.5272620706237 172.92147117306013,235.43705108744325 172.76043737580767,235.11229163230746 172.5994035785552,235.0220806960424 172.5994035785552,234.84165885404218 172.47415506961988,234.69732140985434 172.45626242551953,234.46277311869198 172.36679920484312,234.3364779135445 172.20576540764887,234.31843574304366 171.97316103382036,234.42668877233518 171.8121272366261,234.40864659976796 171.4005964215612,234.60711052050465 171.32902584498515,234.46277311869198 171.38270377740264,234.1380140601832 171.23956262436695,234.04780323401792 170.9353876740206,234.17409839347238 170.73856858850922,234.1921405607427 170.6491053677746,234.1380140601832 170.36282306170324,233.90346593339927 170.29125248506898,233.65087572016637 170.30914512928575,233.19982196678757 170.50596421473892,233.01940053683938 170.36282306170324,232.82093701101257 170.48807157063857,233.0554848195752 170.45228628232144,233.19982196678757 170.0586481114151,233.23590625770157 169.5039761431981,233.03744267800357 169.30715705774492,232.78485273884144 168.7524850895279,232.47813649169984 168.50198807165725,232.1172939988901 168.07256461237557,231.7564516692364 167.83996023860527,231.66624111231067 167.80417495034635,231.55798845746904 167.5536779324757,231.57603056560038 167.24950298218755,231.43169371207478 167.14214711735258,231.43169371207478 166.569582504977,230.99868330798927 166.12226640165318,230.51154688425595 165.88966202788288,230.11462112920708 165.80019880714826,230.11462112920708 165.42445328040048,230.29504190248554 165.01292246527737,230.18678943364648 165.63916501007043,230.31308398206602 165.17395626247162,229.88007418485358 164.42246520880144,229.66356937438832 164.26143141154898,229.5733590540185 164.1182902584551,229.39293844383792 164.10039761441294,229.01405529520707 163.95725646126084,228.86971890495624 163.15208747523138,228.6892984538281 162.91948310146108,228.52692008268787 162.70477137179114,228.2743315709813 162.45427435392048,228.14803734511952 162.0785288271145,228.23824750439962 162.04274353879737,228.14803734511952 161.89960238576168,228.1119532842131 161.63121272367425,227.89544895329163 161.3270377733861,227.80523883269052 160.98707753489725,227.84132287971443 161.11232604371617,227.64286064135376 160.7723658052273,227.4443984523532 160.64711729629198,227.15572626551148 159.7524850895279,227.26397832334624 160.18190854875138,227.19181028316962 159.93141153088072,226.84901218139566 159.9850894632982,226.43404625507537 159.48409542744048,226.8670541830652 159.2872763419873,226.88509618514217 158.85785288276384,226.6866341845307 158.28528827044647,226.50621422677068 158.231610338029,226.39796227167244 157.90954274358228,226.23558436657186 157.64115308161126,226.18145840553916 157.03280318091856,225.67628294616588 156.44234592450084,225.60411504952936 156.1381709742127,225.45977927575586 155.95924453280168,225.2071917344001 156.0487077535363,225.29740156140178 156.15606361837126,225.27935959518072 155.70874751493102,225.2071917344001 154.9751491054776,224.828310572193 154.7425447316491,224.77418470656266 154.68886679928983,224.7381007981894 154.76043737580767,224.7381007981894 154.7425447316491,224.62984908279032 154.40258449310204,224.3592198585393 154.22365805174923,224.3231359689671 153.99105367797893,224.3592198585393 153.5437375746551,224.12467460508924 153.38270377740264,224.08859072608175 153.32902584498515,224.12467460508924 152.97117296227952,223.99838103560614 152.21968190866755,223.98033909872174 151.98707753483905,223.72775202535558 151.73658051691018,223.65558430482633 151.539761431457,223.65558430482633 151.61133200809127,223.72775202535558 151.34294234600384,223.81796168524306 151.19980119296815,223.72775202535558 151.09244532813318,223.47516503190855 151.02087475149892,223.4390811821795 150.7524850895279,223.47516503190855 150.69880715711042,223.42103925798438 150.17992047715234,223.4390811821795 149.91153081518132,223.38495541072916 149.8757455268642,223.3669134877564 149.94731610338204,223.27670387882972 149.82206759456312,223.0962846915063 149.8757455268642,223.06020085891942 149.5894632206764,223.07824277499458 149.30318091460504,222.86173980895546 149.39264413522324,222.6993626228941 149.35685884702252,222.57306927882018 149.24950298218755,222.53698546989472 149.12425447325222,222.3565664497146 148.74850894638803,222.21223126293626 148.14015904581174,221.7431420859648 147.99701789271785,221.5266394818027 148.08648111339426,221.45447196013993 147.65705765411258,221.31013693634304 147.80019880714826,221.25601130916039 147.80019880714826,221.11167632124852 147.38866799202515,220.49825291358866 147.2276341948891,220.46216919837752 147.12027833011234,220.67867151400424 146.92345924460096,220.750838965585 146.94135188870132,220.44412734141224 146.24353876744863,219.9028718213376 146.01093439373653,219.77657891946728 145.5099403578788,219.41574216689332 145.241550695966,219.30749117291998 145.16998011933174,219.19924019358587 143.82803180924384,218.53169281192822 143.1481113320333,218.33323288711836 142.7365805169684,218.1167312071484 142.1282306164503,218.04456399354967 141.87773359846324,217.82806239186903 140.89363817108097,217.467226519424 140.28528827050468,217.1424743735406 139.98111332021654,217.07030724795186 139.6232604373945,216.88988946244353 139.49801192845916,216.90793123914045 139.44433399604168,216.8357641347684 138.8359840954654,216.65534640222904 138.15606361837126,216.33059458632488 137.78031809156528,216.31255282263737 137.63717693847138,216.20430224912707 137.1182902585133,216.05996817394043 136.86779324064264,215.93367587949615 136.59940357861342,215.91563412477262 136.58151093439665,215.71717484976398 136.29522862832528,215.77130010168185 136.34890656074276,215.78934185317485 135.90159045736073,215.71717484976398 135.29324055672623,215.53675736984587 135.04274353885558,215.35633993061492 135.38270377740264,215.4285069014295 135.45427435386227,215.32025644765235 135.6332007953315,215.24808948664577 134.88170974160312,215.30221470681136 133.32504970184527,215.0135469083616 132.9850894632982,214.81508785739425 132.37673956272192,214.27383615076542 132.21570576546947,214.29187786841067 131.85785288276384,214.52642023490625 131.21371769387042,214.54446195825585 131.05268389673438,214.49033678942942 131.76838966208743,214.40012818283867 131.3210735587054,214.16558585342136 130.73061630222946,213.98516872379696 130.92743538774084,214.05733557077474 130.76640159048839,214.30991958646337 130.55168986087665,213.94908530276734 130.31908548710635,213.82279334194027 129.9791252486175,213.80475163488882 129.26341948320623,213.51608437733375 128.6729622266721,213.4258758807846 127.59940357855521,212.9387501751189 126.66898608359043,212.74029163937666 125.95328031817917,212.48770811976283 125.64910536789102,212.30729136889568 124.86182902590372,212.0186246522353 124.19980119290994,211.65779140300583 123.68091451295186,211.45933318533935 123.28727634204552,211.06241689791204 122.9652087475406,210.9361253932293 122.39264413528144,210.48508446797496 122.03479125257581,210.3046681691194 121.64115308155306,209.94383569364436 121.30119284300599,209.81754436568008 121.12226640159497,209.63712821746594 120.97912524855928,209.60104499274166 120.2276341948891,208.98763042120845 119.36878727644216,208.57267377202515 119.04671968193725,208.26596682192758 118.1878727634903,207.86905212001875 117.75844930420863,207.6164701395901 117.54373757459689,207.54430387413595 117.52584493049653,207.45409605142777 116.63121272373246,207.18347264445038 116.39860834996216,207.09326486248756 116.16600397619186,206.91284932909184 115.41451292246347,206.51593529889942 114.91351888672216,206.3896445123828 114.16202783311019,205.97468921157997 113.62524850905174,205.83035698352614 113.1779324056115,205.57777564710705 113.0884691849933,205.63190021246555 112.80218687880551,205.57777564710705 111.99701789265964,205.19890379201388 111.54970178933581,205.30715287511703 111.28131212730659,205.27106984579586 111.04870775353629,204.8380736207473 110.76242544740671,204.85611512541072 110.54771371779498,204.71178309922107 109.49204771372024,204.31487016155734 108.97316103387857,204.26074568534386 108.68687872769078,204.35095314774662 108.06063618295593,204.42311912501464 107.52385685889749,204.56745109910844 106.73658051696839,204.62157559610205 106.61133200803306,204.53136810314027 106.48608349909773,204.58549259768915 106.43240556668025,204.5133266057819 105.91351888672216,204.27878717699787 105.82405566604575,204.17053823304013 105.59145129233366,204.09837227856042 105.32306163024623,203.91795742086833 104.98310139175737,203.80970852580504 104.5,203.53908635213156 104.55367793241749,203.44887898126035 104.80417495034635,203.503003402584" stroke="#4DD2FF" stroke-linecap="round" stroke-linejoin="round" stroke-width="0.5"><title>2025-08-03 10.0km</title><desc>15324609456</desc></polyline></svg>